<?xml version="1.0" encoding="UTF-8" standalone="no"?>
<svg
  version="1.1"
  id="svg1"
  width="32"
  height="39"
  viewBox="0 0 32 39"
  sodipodi:docname="bass_clef.svg"
  inkscape:version="1.3 (0e150ed6c4, 2023-07-21)"
  xmlns:inkscape="http://www.inkscape.org/namespaces/inkscape"
  xmlns:sodipodi="http://sodipodi.sourceforge.net/DTD/sodipodi-0.dtd"
  xmlns="http://www.w3.org/2000/svg"
  xmlns:svg="http://www.w3.org/2000/svg">
  <circle
    style="fill:#000000;fill-opacity:1"
    id="top"
    cx="30"
    cy="5"
    r="2" />
  <circle
    style="fill:#000000;fill-opacity:1"
    id="bottom"
    cx="30"
    cy="15"
    r="2" />
  <path
    style="fill:#000000;fill-opacity:1"
    d="m 7,7 c 3,0 5,2 5,4 0,2 -2,4 -5,4 C 3,15 1,13 1,9 1,5 5,0 12,0 17,0 25,3 25,12 25,28 0,40 0,39 9,33 19,24 19,12 19,8 18,2 11,2 4,2 3,9 3,9 3,9 4,7 7,7 Z"
    id="main"/>
</svg>
