<?xml version="1.0" encoding="UTF-8" standalone="no"?>

<svg
   version="1.1"
   id="svg1"
   width="15"
   height="25"
   viewBox="0 0 15 25"
   xmlns="http://www.w3.org/2000/svg"
   xmlns:svg="http://www.w3.org/2000/svg">

    <path
       style="fill:#000000"
       d="m 6,17 c 0,-2 -1,-2 -2,-2 -1,0 -2,2 -2,2 v 6 c 0,1 4,-3 4,-6 z m 0,-16 c 0,-1 2,0 2,0 v 13 c 0,0 1,-1 3,-1 2,0 3,2 3,4 0,2 -4,8 -7,8 0,0 -1,-0 -1,-4 0,0 -3,4 -5,4 -1,0 -1,-24 -1,-24 0,-1 2,0 2,0 v 13 c 0,0 1,-1 3,-1 l 1,-0 m 6,4 c 0,-2 -1,-2 -2,-2 -1,0 -2,2 -2,2 v 6 c 0,1 4,-3 4,-6 z"
       id="path1"/>
</svg>
