<?xml version="1.0" encoding="UTF-8" standalone="no"?>
<svg
   version="1.1"
   id="doublesharp"
   width="12"
   height="12"
   viewBox="0 0 12 12"
   xmlns="http://www.w3.org/2000/svg"
   xmlns:svg="http://www.w3.org/2000/svg">
  <path
     style="fill:#000000;"
     d="m 0,12 c 0,-2 -0,-4 1,-4 2,0 3,-1 4,-2 -1,-1 -2,-2 -4,-2 -1,0 -1,-2 -1,-4 v 0 c 2,0 4,-0 4,1 0,2 1,3 2,4 1,-1 2,-2 2,-4 0,-1 2,-1 4,-1 0,2 0,4 -1,4 -2,0 -3,1 -4,2 1,1 2,2 4,2 1,0 1,2 1,4 -2,0 -4,0 -4,-1 0,-2 -1,-3 -2,-4 -1,1 -2,2 -2,4 0,1 -2,1 -4,1 z"
     id="path1" />
</svg>
