<?xml version="1.0" encoding="UTF-8" standalone="no"?>
<svg
   version="1"
   id="tenor_clef"
   width="25"
   height="40"
   viewBox="0 0 25 40"
   xmlns="http://www.w3.org/2000/svg"
   xmlns:svg="http://www.w3.org/2000/svg">
 <path
    style="fill:#000000;fill-opacity:1"
    d="M 0,0 V 40 H 4 V 0 H 0"
    id="left" />
 <path
    style="fill:#000000;fill-opacity:1"
    d="m 6,0 h 2 v 20 c 2,0 4,-6 5,-7 0,0 2,3 4,3 3,0 4,-2 4,-8 0,-6 -4,-6 -5,-6 -1,0 -2,0 -2,1 0,0 2,1 2,3 0,2 -2,2 -3,2 -2,0 -3,-1 -3,-3 0,-2 3,-5 6,-5 3,0 9,2 9,8 0,8 -6,10 -8,10 -2,0 -4,-1 -4,2 0,3 2,2 4,2 2,0 8,2 8,10 0,6 -6,8 -9,8 -3,0 -6,-3 -6,-5 0,-2 1,-3 3,-3 1,0 3,0 3,2 0,2 -2,3 -2,3 0,1 1,1 2,1 1,0 5,0 5,-6 0,-6 -1,-8 -4,-8 -2,0 -4,3 -4,3 -1,-1 -3,-7 -5,-7 V 40 H 6"
    id="right"/>
</svg>
