<?xml version="1.0" encoding="UTF-8" standalone="no"?>
<svg
   version="1.1"
   id="treble_clef"
   width="22"
   height="66"
   viewBox="0 0 22 66"
   xmlns="http://www.w3.org/2000/svg"
   xmlns:svg="http://www.w3.org/2000/svg">
  <path
     style="fill:#000000;fill-opacity:1;stroke-width:1.14177"
     d="m 12,5 c 3,0 3,3 3,7 0,12 -15,13 -15,26 0,8 7,11 11,11 4,0 11,-3 11,-8 0,-5 -3,-8 -7,-8 -10,0 -8,12 -3,12 -6,-6 -2,-9 2,-9 5,0 6,1 6,5 0,4 -5,6 -9,6 C 7,47 3,45 3,38 3,27 17,24 17,12 17,0 15,0 12,0 7,0 8,11 9,16 c 0,0 7,32 8,38 1,6 0,11 -4,11 -5,0 -5,-4 -5,-4 0,1 4,1 4,-2 0,-2 -1,-3 -3,-3 -2,0 -3,2 -3,3 0,4 3,7 7,7 4,0 6,-4 5,-12 L 10,16 C 9,13 9,5 12,5 Z"
  />
</svg>
